<svg width="40" height="40" viewBox="0 0 40 40" fill="none" stroke="none" xmlns="http://www.w3.org/2000/svg">
  <path d="M19.5 1.5L11.5 9.5L19.5 17.5" stroke="white"/>
  <path d="M19.5 17.5L27.5 9.5L19.5 1.5" stroke="white"/>
  <path d="M17.5 19.5L9.5 11.5L1.5 19.5" stroke="white"/>
  <path d="M1.5 19.5L9.5 27.5L17.5 19.5" stroke="white"/>
  <path d="M37.5 19.5L29.5 11.5L21.5 19.5" stroke="white"/>
  <path d="M21.5 19.5L29.5 27.5L37.5 19.5" stroke="white"/>
  <path d="M19.5 21.5L11.5 29.5L19.5 37.5" stroke="white"/>
  <path d="M19.5 37.5L27.5 29.5L19.5 21.5" stroke="white"/>
  <path d="M19.34 5.29C19.6867 5.29 19.9633 5.32333 20.17 5.39C20.3767 5.45667 20.5867 5.55333 20.8 5.68C20.8733 5.72 20.9367 5.75333 20.99 5.78C21.05 5.80667 21.1 5.82 21.14 5.82C21.2 5.82 21.2467 5.78667 21.28 5.72C21.3133 5.64667 21.34 5.53333 21.36 5.38H21.59C21.5567 5.82667 21.54 6.58667 21.54 7.66H21.31C21.2833 7.3 21.2 6.95667 21.06 6.63C20.9267 6.30333 20.7333 6.04 20.48 5.84C20.2333 5.63333 19.9433 5.53 19.61 5.53C19.2833 5.53 19.0167 5.62333 18.81 5.81C18.61 5.99 18.51 6.23667 18.51 6.55C18.51 6.78333 18.56 6.98667 18.66 7.16C18.76 7.33333 18.9 7.49333 19.08 7.64C19.26 7.78 19.5367 7.97333 19.91 8.22L20.23 8.44C20.6233 8.7 20.9333 8.92667 21.16 9.12C21.3867 9.31333 21.57 9.54 21.71 9.8C21.8567 10.0533 21.93 10.35 21.93 10.69C21.93 11.1167 21.82 11.4767 21.6 11.77C21.38 12.0567 21.08 12.2733 20.7 12.42C20.3267 12.5667 19.91 12.64 19.45 12.64C19.0767 12.64 18.7667 12.6067 18.52 12.54C18.2733 12.4733 18.0467 12.3833 17.84 12.27C17.6933 12.1767 17.58 12.13 17.5 12.13C17.44 12.13 17.3933 12.1667 17.36 12.24C17.3267 12.3067 17.3 12.4167 17.28 12.57H17.05C17.0767 12.15 17.09 11.25 17.09 9.87H17.32C17.3667 10.6167 17.5333 11.2233 17.82 11.69C18.1067 12.15 18.5467 12.38 19.14 12.38C19.5 12.38 19.7967 12.2833 20.03 12.09C20.2633 11.8967 20.38 11.62 20.38 11.26C20.38 10.8867 20.26 10.5667 20.02 10.3C19.78 10.0333 19.4 9.73333 18.88 9.4C18.48 9.14 18.16 8.91333 17.92 8.72C17.68 8.52667 17.4833 8.3 17.33 8.04C17.1767 7.77333 17.1 7.46667 17.1 7.12C17.1 6.72 17.2 6.38333 17.4 6.11C17.6067 5.83 17.88 5.62333 18.22 5.49C18.56 5.35667 18.9333 5.29 19.34 5.29Z" fill="white"/>
  <path d="M19.34 25.29C19.6867 25.29 19.9633 25.3233 20.17 25.39C20.3767 25.4567 20.5867 25.5533 20.8 25.68C20.8733 25.72 20.9367 25.7533 20.99 25.78C21.05 25.8067 21.1 25.82 21.14 25.82C21.2 25.82 21.2467 25.7867 21.28 25.72C21.3133 25.6467 21.34 25.5333 21.36 25.38H21.59C21.5567 25.8267 21.54 26.5867 21.54 27.66H21.31C21.2833 27.3 21.2 26.9567 21.06 26.63C20.9267 26.3033 20.7333 26.04 20.48 25.84C20.2333 25.6333 19.9433 25.53 19.61 25.53C19.2833 25.53 19.0167 25.6233 18.81 25.81C18.61 25.99 18.51 26.2367 18.51 26.55C18.51 26.7833 18.56 26.9867 18.66 27.16C18.76 27.3333 18.9 27.4933 19.08 27.64C19.26 27.78 19.5367 27.9733 19.91 28.22L20.23 28.44C20.6233 28.7 20.9333 28.9267 21.16 29.12C21.3867 29.3133 21.57 29.54 21.71 29.8C21.8567 30.0533 21.93 30.35 21.93 30.69C21.93 31.1167 21.82 31.4767 21.6 31.77C21.38 32.0567 21.08 32.2733 20.7 32.42C20.3267 32.5667 19.91 32.64 19.45 32.64C19.0767 32.64 18.7667 32.6067 18.52 32.54C18.2733 32.4733 18.0467 32.3833 17.84 32.27C17.6933 32.1767 17.58 32.13 17.5 32.13C17.44 32.13 17.3933 32.1667 17.36 32.24C17.3267 32.3067 17.3 32.4167 17.28 32.57H17.05C17.0767 32.15 17.09 31.25 17.09 29.87H17.32C17.3667 30.6167 17.5333 31.2233 17.82 31.69C18.1067 32.15 18.5467 32.38 19.14 32.38C19.5 32.38 19.7967 32.2833 20.03 32.09C20.2633 31.8967 20.38 31.62 20.38 31.26C20.38 30.8867 20.26 30.5667 20.02 30.3C19.78 30.0333 19.4 29.7333 18.88 29.4C18.48 29.14 18.16 28.9133 17.92 28.72C17.68 28.5267 17.4833 28.3 17.33 28.04C17.1767 27.7733 17.1 27.4667 17.1 27.12C17.1 26.72 17.2 26.3833 17.4 26.11C17.6067 25.83 17.88 25.6233 18.22 25.49C18.56 25.3567 18.9333 25.29 19.34 25.29Z" fill="white"/>
  <path d="M9.93 16.42C11.23 16.42 12.2033 16.7167 12.85 17.31C13.4967 17.8967 13.82 18.7533 13.82 19.88C13.82 20.6067 13.66 21.2433 13.34 21.79C13.0267 22.33 12.57 22.75 11.97 23.05C11.3767 23.35 10.6667 23.5 9.84 23.5L9.22 23.49C8.83333 23.4767 8.55333 23.47 8.38 23.47C7.69333 23.47 7.18 23.48 6.84 23.5V23.3C7.06 23.2867 7.22 23.26 7.32 23.22C7.42667 23.18 7.49667 23.1033 7.53 22.99C7.57 22.8767 7.59 22.6933 7.59 22.44V17.48C7.59 17.2267 7.57 17.0433 7.53 16.93C7.49667 16.8167 7.42667 16.74 7.32 16.7C7.22 16.66 7.06 16.6333 6.84 16.62V16.42C7.12 16.44 7.52333 16.45 8.05 16.45H8.36L8.76 16.44C9.30667 16.4267 9.69667 16.42 9.93 16.42ZM9.92 16.6C9.71333 16.6 9.55667 16.6233 9.45 16.67C9.35 16.7167 9.28 16.8 9.24 16.92C9.2 17.04 9.18 17.22 9.18 17.46V22.46C9.18 22.7 9.2 22.88 9.24 23C9.28 23.12 9.35 23.2033 9.45 23.25C9.55667 23.2967 9.71667 23.32 9.93 23.32C10.7367 23.32 11.31 23.04 11.65 22.48C11.99 21.9133 12.16 21.06 12.16 19.92C12.16 18.78 11.9833 17.9433 11.63 17.41C11.2833 16.87 10.7133 16.6 9.92 16.6Z" fill="white"/>
  <path d="M32.52 16.45C32.8267 16.45 33.08 16.44 33.28 16.42V16.62C33.1133 16.68 32.95 16.8067 32.79 17C32.63 17.1933 32.4867 17.4633 32.36 17.81L30.25 23.52C30.1767 23.5133 30.06 23.51 29.9 23.51C29.7467 23.51 29.6333 23.5133 29.56 23.52L27.01 17.26C26.9233 17.04 26.8233 16.88 26.71 16.78C26.5967 16.68 26.4867 16.6267 26.38 16.62V16.42C26.78 16.44 27.2867 16.45 27.9 16.45C28.5867 16.45 29.0933 16.44 29.42 16.42V16.62C29.1667 16.6333 28.9867 16.6633 28.88 16.71C28.7733 16.7567 28.72 16.85 28.72 16.99C28.72 17.1033 28.76 17.26 28.84 17.46L30.6 21.94L31.83 18.62C32.0167 18.1067 32.11 17.7 32.11 17.4C32.11 17.1333 32.0367 16.94 31.89 16.82C31.75 16.7 31.5433 16.6333 31.27 16.62V16.42C31.7233 16.44 32.14 16.45 32.52 16.45Z" fill="white"/>
  <path d="M38 19.5L19.5 1L1 19.5L19.5 38L38 19.5Z"/>
</svg>
